#tb 0: 1/50
0,         80,         80,        1,   221184, 0xdaf54f83
0,         82,         82,        1,   221184, 0xeea3e3b4
0,         83,         83,        1,   221184, 0x5f1a8525
0,         84,         84,        1,   221184, 0x950bb170
0,         85,         85,        1,   221184, 0x6262e94c
0,         86,         86,        1,   221184, 0x28752197
0,         87,         87,        1,   221184, 0x0c2811e7
0,         88,         88,        1,   221184, 0xb2c1a729
0,         90,         90,        1,   221184, 0x998d6144
0,         91,         91,        1,   221184, 0xf5d52311
0,         92,         92,        1,   221184, 0xea9dd6bf
0,         93,         93,        1,   221184, 0x0e2ed854
0,         94,         94,        1,   221184, 0xe295ba58
0,         95,         95,        1,   221184, 0x8aedbb69
0,         96,         96,        1,   221184, 0x253c9aaa
0,         97,         97,        1,   221184, 0x5eaf9fb1
0,         98,         98,        1,   221184, 0xcdb5a0cb
0,         99,         99,        1,   221184, 0xcdb5a0cb
0,        100,        100,        1,   221184, 0x23f89994
0,        101,        101,        1,   221184, 0x23f89994
0,        102,        102,        1,   221184, 0x10dc98d6
0,        103,        103,        1,   221184, 0x799b9d98
0,        104,        104,        1,   221184, 0xb226996c
0,        105,        105,        1,   221184, 0x0ac59a42
0,        106,        106,        1,   221184, 0x87c2a654
0,        107,        107,        1,   221184, 0xf4c1a711
0,        108,        108,        1,   221184, 0xf60fa72e
0,        109,        109,        1,   221184, 0xc8f8b6fc
0,        110,        110,        1,   221184, 0xd709b813
0,        111,        111,        1,   221184, 0x5fdfb76b
0,        112,        112,        1,   221184, 0x5798b0aa
0,        113,        113,        1,   221184, 0xf572b1c3
0,        114,        114,        1,   221184, 0x14b0afdf
0,        115,        115,        1,   221184, 0x0a66b5b8
0,        116,        116,        1,   221184, 0xe316c620
0,        117,        117,        1,   221184, 0xbc76c5c2
0,        118,        118,        1,   221184, 0x77c7c5e5
0,        119,        119,        1,   221184, 0xfc7ac63e
0,        120,        120,        1,   221184, 0x05a29ffe
0,        121,        121,        1,   221184, 0x9bffbf6c
0,        122,        122,        1,   221184, 0x3c55be40
0,        123,        123,        1,   221184, 0x6f46c14e
0,        124,        124,        1,   221184, 0x9cf4ae70
0,        125,        125,        1,   221184, 0xf205b2f8
0,        126,        126,        1,   221184, 0x7180aff8
0,        127,        127,        1,   221184, 0x125eaffe
0,        128,        128,        1,   221184, 0x6970a32d
0,        129,        129,        1,   221184, 0xaea79f62
0,        130,        130,        1,   221184, 0x48d2a093
0,        131,        131,        1,   221184, 0x10a59eb5
